<?xml version="1.0" standalone="no"?>
<!DOCTYPE svg PUBLIC "-//W3C//DTD SVG 20010904//EN"
 "http://www.w3.org/TR/2001/REC-SVG-20010904/DTD/svg10.dtd">
<svg version="1.0" xmlns="http://www.w3.org/2000/svg"
 width="810.000000pt" height="135.000000pt" viewBox="0 0 810.000000 135.000000"
 preserveAspectRatio="xMidYMid meet">

<g transform="translate(0.000000,135.000000) scale(0.100000,-0.100000)"
fill="#000000" stroke="none">
<path d="M1420 690 c0 -393 3 -600 10 -600 7 0 10 207 10 600 0 393 -3 600
-10 600 -7 0 -10 -207 -10 -600z"/>
<path d="M423 1099 c-32 -9 -93 -62 -93 -80 0 -6 9 -5 21 2 34 18 104 5 146
-27 l38 -29 -65 -5 c-75 -6 -100 -18 -130 -60 -33 -47 -43 -93 -29 -142 l12
-43 9 32 c15 56 83 91 213 109 l49 7 -38 -44 c-50 -59 -104 -170 -117 -244
-11 -62 -8 -226 6 -257 5 -13 3 -18 -9 -18 -54 0 -186 -79 -186 -112 0 -4 126
-8 280 -8 309 0 311 1 245 58 -31 28 -90 51 -167 67 -54 11 -97 155 -84 281
12 114 71 265 97 248 25 -15 89 -129 100 -179 10 -47 10 -57 -5 -79 -20 -32
-6 -34 40 -6 18 12 42 40 53 64 35 72 25 134 -32 195 -31 32 -31 33 -7 26 71
-21 106 -53 124 -116 l13 -43 12 37 c34 102 -46 215 -154 217 l-30 1 25 14
c14 8 36 14 50 15 43 0 -1 31 -54 37 -34 4 -50 11 -58 27 -13 26 -49 66 -59
66 -4 0 -5 -26 -2 -57 l6 -58 -41 46 c-26 29 -55 50 -80 57 -45 14 -55 14 -99
1z"/>
<path d="M5356 930 c-41 -13 -65 -38 -72 -76 -12 -63 3 -99 71 -174 53 -57 65
-76 65 -104 0 -67 -62 -74 -68 -7 -3 28 -6 31 -39 31 l-36 0 6 -46 c7 -67 37
-94 101 -94 77 1 106 33 106 115 0 58 -9 76 -76 146 -74 79 -85 144 -23 144
18 0 25 -8 33 -32 7 -27 14 -33 37 -33 26 0 29 4 29 30 0 42 -25 87 -52 95
-44 12 -53 13 -82 5z"/>
<path d="M5693 926 c-17 -8 -36 -23 -42 -35 -7 -12 -11 -90 -11 -201 l0 -181
26 -24 c37 -35 111 -35 151 -1 27 23 28 28 31 130 l4 106 -51 0 c-50 0 -51 -1
-51 -30 0 -20 5 -30 15 -30 12 0 15 -13 15 -59 0 -64 -15 -87 -50 -76 -19 6
-20 14 -20 171 0 143 2 165 16 171 27 10 49 -11 52 -51 3 -34 5 -36 39 -36
l36 0 -5 51 c-8 84 -80 128 -155 95z"/>
<path d="M5952 925 c-51 -23 -62 -62 -62 -222 0 -207 17 -243 113 -243 40 0
53 5 78 29 l29 29 0 176 0 176 -27 29 c-34 37 -85 47 -131 26z m76 -67 c19
-19 17 -312 -3 -328 -19 -16 -52 -4 -59 23 -10 38 -7 277 4 298 12 21 40 25
58 7z"/>
<path d="M6233 933 c-12 -2 -34 -18 -48 -34 -25 -30 -25 -33 -25 -206 l0 -175
29 -29 c25 -24 38 -29 78 -29 95 0 113 36 113 235 0 146 -10 198 -44 220 -25
17 -71 25 -103 18z m67 -82 c5 -11 10 -82 10 -160 0 -114 -3 -142 -16 -155 -8
-9 -21 -16 -28 -16 -31 0 -36 25 -36 175 0 156 5 175 42 175 9 0 22 -9 28 -19z"/>
<path d="M7735 926 c-36 -16 -55 -52 -55 -107 0 -52 11 -71 81 -146 49 -51 59
-67 59 -97 0 -63 -64 -72 -76 -10 -5 29 -10 34 -35 34 -27 0 -29 -2 -29 -41 0
-59 42 -99 104 -99 63 0 96 30 103 92 8 70 -1 92 -72 169 -46 50 -65 78 -65
97 0 38 14 54 41 50 19 -2 25 -10 27 -35 3 -30 6 -33 38 -33 29 0 34 3 34 24
0 48 -22 88 -56 102 -41 17 -60 17 -99 0z"/>
<path d="M1884 907 c-20 -18 -28 -35 -31 -73 -6 -63 11 -100 79 -167 51 -53
64 -81 54 -123 -5 -20 -12 -25 -34 -22 -20 2 -29 11 -36 36 -7 26 -14 32 -37
32 -26 0 -29 -4 -29 -30 0 -60 45 -110 99 -110 67 0 111 47 111 119 0 59 -13
84 -80 156 -52 56 -61 71 -58 98 3 28 7 32 33 32 25 0 30 -4 33 -27 3 -25 8
-28 39 -28 l36 0 -6 42 c-8 58 -43 88 -102 88 -31 0 -52 -7 -71 -23z"/>
<path d="M2153 920 c-46 -19 -55 -57 -51 -241 l3 -169 28 -27 c23 -23 36 -28
77 -28 41 0 54 5 77 28 l28 27 3 164 c4 183 -6 228 -53 246 -32 12 -82 12
-112 0z m92 -82 c3 -13 4 -86 3 -162 -3 -119 -5 -140 -20 -150 -13 -8 -23 -8
-35 0 -16 10 -18 31 -21 160 -1 81 0 154 2 161 3 7 19 13 35 13 23 0 32 -5 36
-22z"/>
<path d="M2678 923 c-57 -4 -58 -5 -58 -33 0 -28 3 -30 35 -30 l35 0 0 -200 0
-200 35 0 35 0 0 200 0 200 41 0 c39 0 40 1 37 33 -3 31 -4 32 -53 33 -27 0
-76 -1 -107 -3z"/>
<path d="M2880 695 l0 -235 35 0 35 0 0 105 0 105 40 0 40 0 0 -105 0 -105 37
0 36 0 -6 167 c-4 91 -7 197 -7 235 l0 68 -30 0 -30 0 0 -95 0 -95 -40 0 -40
0 0 49 c0 26 -3 69 -6 95 -6 43 -9 46 -35 46 l-29 0 0 -235z"/>
<path d="M3294 915 c-39 -27 -46 -63 -42 -238 3 -158 4 -167 27 -191 30 -32
71 -41 116 -26 44 15 65 53 65 120 0 49 -1 50 -30 50 -28 0 -30 -3 -30 -36 0
-44 -15 -74 -38 -74 -37 0 -42 19 -42 171 0 121 3 150 16 163 29 30 54 13 61
-43 5 -37 8 -41 34 -41 28 0 29 2 29 51 0 43 -5 55 -29 80 -24 23 -38 29 -73
29 -24 0 -53 -7 -64 -15z"/>
<path d="M3565 918 c-2 -7 -18 -101 -35 -208 -17 -107 -33 -207 -36 -222 -5
-26 -3 -28 30 -28 33 0 36 2 36 29 0 50 9 61 51 61 40 0 42 -2 51 -65 2 -15
12 -21 40 -23 31 -3 36 0 32 15 -2 10 -17 104 -34 208 -43 271 -34 245 -86
245 -27 0 -46 -5 -49 -12z m64 -197 c15 -115 16 -111 -20 -111 l-32 0 7 48 c4
26 9 73 13 105 3 32 9 54 13 50 5 -4 13 -46 19 -92z"/>
<path d="M3778 924 c-5 -4 -8 -110 -8 -236 l0 -228 35 0 34 0 3 98 c3 88 5 97
23 100 40 5 49 -12 53 -107 l4 -91 34 0 34 0 0 73 c0 83 -15 146 -36 154 -12
5 -11 10 7 29 19 20 23 36 23 90 0 57 -3 68 -27 92 -23 23 -37 27 -100 30 -39
2 -75 0 -79 -4z m127 -128 c0 -62 -16 -86 -49 -73 -12 5 -16 20 -16 72 l0 66
33 -3 32 -3 0 -59z"/>
<path d="M4077 919 c-37 -21 -47 -71 -47 -224 0 -172 10 -208 65 -231 49 -20
99 -10 131 29 l25 30 -3 179 -3 180 -28 24 c-21 18 -40 24 -75 24 -26 0 -55
-5 -65 -11z m91 -61 c8 -8 12 -59 12 -163 0 -156 -5 -175 -42 -175 -30 0 -38
35 -38 175 0 75 5 145 10 156 12 21 40 25 58 7z"/>
<path d="M4307 923 c-4 -3 -7 -109 -7 -235 l0 -228 95 0 95 0 0 35 0 35 -60 0
-60 0 0 200 0 200 -28 0 c-16 0 -32 -3 -35 -7z"/>
<path d="M4530 695 l0 -235 35 0 35 0 0 235 0 235 -35 0 -35 0 0 -235z"/>
<path d="M4660 695 l0 -235 30 0 30 0 1 168 1 167 37 -140 c21 -77 41 -152 45
-167 5 -24 12 -28 41 -28 l35 0 0 235 0 235 -30 0 -29 0 -3 -137 -3 -137 -35
137 -35 137 -42 0 -43 0 0 -235z"/>
<path d="M4956 703 c-20 -126 -36 -232 -36 -236 0 -5 15 -7 33 -5 29 3 32 6
37 43 5 39 6 40 47 43 l42 3 8 -43 c8 -39 11 -43 41 -46 26 -3 32 0 32 15 0
16 -40 276 -65 421 -6 31 -8 32 -54 32 l-48 0 -37 -227z m101 24 c18 -118 18
-117 -17 -117 -24 0 -30 4 -30 23 0 42 23 187 29 181 3 -3 11 -42 18 -87z"/>
<path d="M5168 925 c-2 -3 -1 -28 3 -57 4 -29 8 -61 8 -70 1 -11 9 -18 20 -18
14 0 20 10 25 46 12 91 9 104 -22 104 -16 0 -31 -2 -34 -5z"/>
<path d="M6430 696 l0 -236 60 0 c69 0 123 19 139 48 7 13 11 88 11 191 0 165
-1 171 -24 198 -22 25 -31 28 -105 31 l-81 4 0 -236z m135 -1 l0 -160 -32 -3
-33 -3 0 166 0 166 33 -3 32 -3 0 -160z"/>
<path d="M6802 698 l3 -233 28 -3 27 -3 1 168 c0 188 3 188 49 -1 40 -160 43
-166 80 -166 l30 0 0 235 0 235 -30 0 -30 0 -1 -132 0 -133 -18 65 c-10 36
-26 95 -36 133 l-18 67 -44 0 -43 0 2 -232z"/>
<path d="M7082 698 l3 -233 95 0 95 0 3 33 3 32 -65 0 -66 0 0 70 0 70 50 0
50 0 0 35 0 35 -50 0 -50 0 0 60 0 60 65 0 65 0 0 35 0 35 -100 0 -100 0 2
-232z"/>
<path d="M7305 893 c3 -21 12 -105 20 -188 8 -82 17 -169 21 -193 l5 -43 47 3
47 3 16 145 c17 160 20 157 40 -37 l12 -113 43 0 c51 0 46 -17 69 230 8 91 17
180 20 198 4 32 3 33 -28 30 -19 -2 -33 -9 -34 -18 -1 -8 -7 -82 -14 -165 -14
-171 -20 -163 -40 53 l-11 132 -39 0 c-22 0 -39 -3 -39 -7 0 -5 -7 -71 -15
-148 -8 -77 -15 -149 -15 -159 0 -48 -10 -1 -19 99 -22 233 -18 215 -57 215
-34 0 -34 0 -29 -37z"/>
<path d="M2370 723 c0 -223 4 -239 63 -262 30 -11 45 -12 77 -2 65 19 70 39
70 266 l0 195 -35 0 -35 0 -2 -197 -3 -198 -30 0 -30 0 -3 198 -2 197 -35 0
-35 0 0 -197z"/>
</g>
</svg>
